{"title":"To.Kill.a.Man.[Matar.a.un.Hombre].2014.BRRip.x264.HORiZON-ArtSub","uid":10637424,"size":2118059399,"categoryP":"video","categoryS":"movies","magnet":"?xt=urn:btih:6f9b9cdc7a912fa5957b3c3b7ce9d1075661033a&amp;dn=To.Kill.a.Man.%5BMatar.a.un.Hombre%5D.2014.BRRip.x264.HORiZON-ArtSub&amp;tr=udp%3A%2F%2Ftracker.openbittorrent.com%3A80&amp;tr=udp%3A%2F%2Fopen.demonii.com%3A1337&amp;tr=udp%3A%2F%2Ftracker.coppersurfer.tk%3A6969&amp;tr=udp%3A%2F%2Fexodus.desync.com%3A6969","seeders":12,"leechers":2,"uploader":"lletaif","files":3,"time":1406406397,"description":"Title:\nTo Kill a Man Aka Matar a un Hombre\n\n\n\nCountry:\nChile, 2014\n\n\n\nLanguage:\nSpanish\n\n\nSubtitle:\nGerman\n\n\nIMDB: &lt;a href=&quot;\nhttp://www.imdb.com/title/tt3460152/?ref_=fn_al_tt_1&quot; rel=&quot;nofollow&quot; target=&quot;_NEW&quot;&gt;\nhttp://www.imdb.com/title/tt3460152/?ref_=fn_al_tt_1&lt;/a&gt;\n\n\nSynopsis:\nJorge is a tranquil, middle-class family man whose neighborhood has become overrun by a fringe class of street thugs. His comparatively fortunate existence makes him the target of their intimidation one night, and a hulking outlaw robs him of his insulin needle. Jorge's teenage son boldly tries to stand up for his father, which only serves to unleash the bully's terrorizing reign of threats upon the family. Jorge and his wife, Martha, seek protection from the legal system but are subjected to civic drones and bureaucratic procedure, so they remain vulnerable. As Jorge's family suffers from fear and humiliating anguish, the situation paints him as a deficient patriarch-until he's cornered into defending what's his. \n\n\nTrivia:\n5 wins and 5 nominations\n\nWin Best World Cinema - Dramatic - Sundance Film Festival 2014\n\n\nMedia Info:\nGeneral\nUnique ID                                : 247454822730838768141104294880294771750 (0xBA2A10B75F4016B8A312D41343F09C26)\nComplete name                            : To.Kill.a.Man.[Matar.a.un.Hombre].2014.BRRip.x264.HORiZON-ArtSubs.mkv\nFormat                                   : Matroska\nFormat version                           : Version 2\nFile size                                : 1.97 GiB\nDuration                                 : 1h 22mn\nOverall bit rate                         : 3 437 Kbps\nEncoded date                             : UTC 2014-07-26 17:13:14\nWriting application                      : DVDFab 9.1.4.0\nWriting library                          : libebml v0.7.8 + libmatroska v0.8.1\n\nVideo\nID                                       : 1\nFormat                                   : AVC\nFormat/Info                              : Advanced Video Codec\nFormat profile                           : &lt;a class=&quot;__cf_email__&quot; href=&quot;/cdn-cgi/l/email-protection&quot; data-cfemail=&quot;e5ad8c828da5a9d1cbd4&quot;&gt;[email&amp;#160;protected]&lt;/a&gt;&lt;script cf-hash='f9e31' type=&quot;text/javascript&quot;&gt;\n/* &lt;![CDATA[ */!function(){try{var t=&quot;currentScript&quot;in document?document.currentScript:function(){for(var t=document.getElementsByTagName(&quot;script&quot;),e=t.length;e--;)if(t[e].getAttribute(&quot;cf-hash&quot;))return t[e]}();if(t&amp;&amp;t.previousSibling){var e,r,n,i,c=t.previousSibling,a=c.getAttribute(&quot;data-cfemail&quot;);if(a){for(e=&quot;&quot;,r=parseInt(a.substr(0,2),16),n=2;a.length-n;n+=2)i=parseInt(a.substr(n,2),16)^r,e+=String.fromCharCode(i);e=document.createTextNode(e),c.parentNode.replaceChild(e,c)}}}catch(u){}}();/* ]]&gt; */&lt;/script&gt;\nFormat settings, CABAC                   : Yes\nFormat settings, ReFrames                : 2 frames\nFormat settings, GOP                     : M=3, N=24\nCodec ID                                 : V_MPEG4/ISO/AVC\nDuration                                 : 1h 22mn\nBit rate                                 : 2 920 Kbps\nWidth                                    : 1 440 pixels\nHeight                                   : 604 pixels\nDisplay aspect ratio                     : 2.40:1\nFrame rate mode                          : Constant\nFrame rate                               : 24.000 fps\nColor space                              : YUV\nChroma subsampling                       : 4:2:0\nBit depth                                : 8 bits\nScan type                                : Progressive\nBits/(Pixel*Frame)                       : 0.140\nStream size                              : 1.67 GiB (85%)\nWriting library                          : x264 core\nDefault                                  : Yes\nForced                                   : No\nColor primaries                          : BT.709\nTransfer characteristics                 : BT.709\nMatrix coefficients                      : BT.709\n\nAudio\nID                                       : 2\nFormat                                   : AC-3\nFormat/Info                              : Audio Coding 3\nMode extension                           : CM (complete main)\nFormat settings, Endianness              : Big\nCodec ID                                 : A_AC3\nDuration                                 : 1h 22mn\nBit rate mode                            : Constant\nBit rate                                 : 448 Kbps\nChannel(s)                               : 6 channels\nChannel positions                        : Front: L C R, Side: L R, LFE\nSampling rate                            : 48.0 KHz\nBit depth                                : 16 bits\nCompression mode                         : Lossy\nStream size                              : 263 MiB (13%)\nLanguage                                 : Spanish\nDefault                                  : Yes\nForced                                   : No\n\nMenu\n00:00:00.000                             : en:(01)00:00:00:000\n00:08:00.958                             : en:(02)00:08:00:958\n00:14:27.833                             : en:(03)00:14:27:833\n00:17:39.791                             : en:(04)00:17:39:791\n00:25:09.500                             : en:(05)00:25:09:500\n00:29:16.791                             : en:(06)00:29:16:791\n00:35:19.458                             : en:(07)00:35:19:458\n00:40:03.250                             : en:(08)00:40:03:250\n00:47:27.958                             : en:(09)00:47:27:958\n00:56:26.458                             : en:(10)00:56:26:458\n00:59:59.000                             : en:(11)00:59:59:000\n01:06:48.291                             : en:(12)01:06:48:291\n01:17:35.791                             : en:(13)01:17:35:791\n01:22:01.958                             : en:(14)01:22:01:958\n\n","torrent":{"xt":"urn:btih:6f9b9cdc7a912fa5957b3c3b7ce9d1075661033a","amp;dn":"To.Kill.a.Man.%5BMatar.a.un.Hombre%5D.2014.BRRip.x264.HORiZON-ArtSub","amp;tr":["udp%3A%2F%2Ftracker.openbittorrent.com%3A80","udp%3A%2F%2Fopen.demonii.com%3A1337","udp%3A%2F%2Ftracker.coppersurfer.tk%3A6969","udp%3A%2F%2Fexodus.desync.com%3A6969"],"infoHash":"6f9b9cdc7a912fa5957b3c3b7ce9d1075661033a","infoHashBuffer":{"type":"Buffer","data":[111,155,156,220,122,145,47,165,149,123,60,59,124,233,209,7,86,97,3,58]},"announce":[],"urlList":[]}}